<?xml version="1.0" standalone="no"?>
<!DOCTYPE svg PUBLIC "-//W3C//DTD SVG 20010904//EN"
 "http://www.w3.org/TR/2001/REC-SVG-20010904/DTD/svg10.dtd">
<svg version="1.0" xmlns="http://www.w3.org/2000/svg"
 width="192.000000pt" height="192.000000pt" viewBox="0 0 192.000000 192.000000"
 preserveAspectRatio="xMidYMid meet">

<g transform="translate(0.000000,192.000000) scale(0.100000,-0.100000)"
fill="#000000" stroke="none">
<path d="M0 1255 l0 -665 960 0 960 0 0 75 0 75 -480 0 -480 0 0 75 0 75 480
0 480 0 0 70 0 70 -480 0 -480 0 0 75 0 75 480 0 480 0 0 75 0 75 -480 0 -480
0 0 75 0 75 480 0 480 0 0 70 0 70 -480 0 -480 0 0 75 0 75 480 0 480 0 0 75
0 75 -960 0 -960 0 0 -665z m456 494 c19 -11 34 -24 34 -27 0 -4 -19 -6 -43
-4 -32 3 -49 -2 -70 -18 -156 -123 -156 -617 0 -740 21 -16 38 -21 70 -18 24
2 43 0 43 -4 0 -14 -69 -48 -96 -48 -46 0 -97 42 -131 107 -51 96 -67 170 -67
328 -1 162 16 246 68 341 54 98 121 127 192 83z m100 -189 c9 -33 21 -63 25
-66 5 -3 9 22 9 55 0 34 4 61 10 61 6 0 10 -27 10 -61 0 -33 4 -58 9 -55 4 3
16 33 25 67 21 74 27 73 15 -1 -21 -129 -24 -121 21 -70 l40 45 -25 -59 c-35
-81 -34 -85 18 -76 l42 8 -45 -40 c-38 -34 -42 -41 -29 -51 48 -37 72 -58 68
-62 -3 -2 -21 0 -42 4 -45 11 -46 5 -12 -75 l25 -59 -40 45 c-45 51 -42 59
-21 -70 12 -74 6 -75 -15 -1 -9 34 -21 64 -25 67 -5 3 -9 -22 -9 -55 0 -34 -4
-61 -10 -61 -6 0 -10 27 -10 61 0 33 -4 58 -9 55 -4 -3 -16 -33 -25 -67 -21
-74 -27 -73 -15 1 21 129 24 121 -21 70 l-40 -45 25 59 c34 80 33 86 -12 75
-59 -13 -55 -4 26 58 14 10 10 17 -27 48 -24 21 -41 39 -40 41 2 1 20 -1 41
-5 45 -11 46 -5 12 75 l-25 59 40 -45 c27 -30 40 -38 36 -25 -2 11 -7 43 -11
70 -3 28 -8 58 -11 68 -3 9 -3 17 0 17 3 0 13 -27 22 -60z"/>
<path d="M0 370 l0 -70 960 0 960 0 0 70 0 70 -960 0 -960 0 0 -70z"/>
<path d="M0 75 l0 -75 960 0 960 0 0 75 0 75 -960 0 -960 0 0 -75z"/>
</g>
</svg>
